<?xml version="1.0" encoding="utf-8"?>
<!-- Generator: Adobe Illustrator 16.0.0, SVG Export Plug-In . SVG Version: 6.00 Build 0)  -->
<!DOCTYPE svg PUBLIC "-//W3C//DTD SVG 1.1//EN" "http://www.w3.org/Graphics/SVG/1.1/DTD/svg11.dtd">
<svg version="1.1"
	 id="Layer_1" xmlns:dc="http://purl.org/dc/elements/1.1/" xmlns:cc="http://creativecommons.org/ns#" xmlns:rdf="http://www.w3.org/1999/02/22-rdf-syntax-ns#" xmlns:svg="http://www.w3.org/2000/svg" xmlns:sodipodi="http://sodipodi.sourceforge.net/DTD/sodipodi-0.dtd" xmlns:inkscape="http://www.inkscape.org/namespaces/inkscape"
	 xmlns="http://www.w3.org/2000/svg" xmlns:xlink="http://www.w3.org/1999/xlink" x="0px" y="0px" width="227.748px" height="288px"
	 viewBox="286.126 16 227.748 288" enable-background="new 286.126 16 227.748 288" xml:space="preserve">
<g transform="translate(0,-952.36216)">
	<path fill="#FFFFFF" d="M400,968.362c-62.891,0-113.874,50.982-113.874,113.874l0,0c0.045,47.899,30.061,90.649,75.097,106.961
		L400,1256.362l38.811-67.221c45.005-16.314,75-59.034,75.063-106.905C513.874,1019.346,462.892,968.362,400,968.362L400,968.362z
		 M400,997.769c46.65,0,84.467,37.817,84.468,84.467c-0.001,46.65-37.816,84.467-84.468,84.468
		c-46.649,0-84.467-37.817-84.467-84.468C315.533,1035.587,353.35,997.769,400,997.769L400,997.769z"/>
	<path fill="#FFFFFF" d="M356.477,1110.64v5.715h87.046v-5.715H356.477z"/>
	<path fill="#FFFFFF" d="M349.392,1123.288v5.714h101.217v-5.714H349.392z"/>
	<path fill="#FFFFFF" d="M356.477,1057.191h87.048L400,1035.471L356.477,1057.191z"/>
	<path fill="#FFFFFF" d="M361.036,1065.307v36.564h5.714v-36.564H361.036z"/>
	<path fill="#FFFFFF" d="M433.249,1065.307v36.564h5.715v-36.564H433.249z"/>
	<path fill="#FFFFFF" d="M418.81,1065.307v36.564h5.715v-36.564H418.81z"/>
	<path fill="#FFFFFF" d="M375.479,1065.307v36.564h5.716v-36.564H375.479z"/>
	<path fill="#FFFFFF" d="M389.922,1065.307v36.564h5.714v-36.564H389.922z"/>
	<path fill="#FFFFFF" d="M404.364,1065.307v36.564h5.716v-36.564H404.364L404.364,1065.307z"/>
</g>
</svg>
